<?xml version="1.0" standalone="no"?>
<!DOCTYPE svg PUBLIC "-//W3C//DTD SVG 20010904//EN"
 "http://www.w3.org/TR/2001/REC-SVG-20010904/DTD/svg10.dtd">
<svg version="1.0" xmlns="http://www.w3.org/2000/svg"
 width="100.000000pt" height="100.000000pt" viewBox="0 0 100.000000 100.000000"
 preserveAspectRatio="xMidYMid meet">

<g transform="translate(0.000000,100.000000) scale(0.100000,-0.100000)"
fill="#000000" stroke="none">
<path d="M414 930 c-57 -12 -125 -45 -171 -85 -39 -33 -103 -138 -103 -168 0
-12 -13 -17 -47 -19 l-48 -3 0 -295 0 -295 455 0 455 0 0 295 0 295 -37 3
c-34 3 -39 7 -48 40 -12 46 -19 56 -47 71 -31 16 -85 13 -183 -9 -94 -21 -185
-26 -195 -9 -11 16 -1 20 67 29 35 4 71 11 81 15 43 17 27 104 -24 130 -30 16
-89 18 -155 5z m148 -47 c39 -36 15 -63 -58 -63 -78 0 -121 -40 -95 -89 20
-37 134 -40 261 -6 67 18 134 19 147 3 6 -7 13 -25 17 -40 l6 -28 -330 0
c-220 0 -330 3 -330 10 0 44 89 158 149 189 70 38 203 52 233 24z m-440 -415
c-2 -92 1 -168 8 -190 31 -106 149 -164 248 -123 157 66 161 275 7 346 -68 31
-148 18 -202 -33 l-23 -21 0 34 c0 19 5 40 12 47 8 8 8 15 -1 26 -7 8 -11 25
-9 38 3 21 9 23 65 26 54 3 63 0 73 -18 10 -19 20 -20 200 -20 179 0 190 1
200 20 9 17 21 20 75 20 64 0 65 0 65 -28 0 -15 -5 -33 -12 -40 -9 -9 -9 -15
0 -24 7 -7 12 -30 12 -51 l0 -39 -30 26 c-36 30 -85 41 -137 31 -50 -9 -119
-78 -128 -128 -12 -62 3 -107 49 -153 67 -67 154 -72 223 -11 57 50 63 76 63
257 0 153 1 160 20 160 19 0 20 -7 20 -260 l0 -260 -420 0 -420 0 0 260 0 260
23 0 c22 0 22 0 19 -152z m258 -8 c45 -23 80 -80 80 -130 0 -76 -74 -150 -150
-150 -50 0 -107 35 -130 80 -25 50 -25 90 0 140 37 73 124 99 200 60z m409
-28 c58 -43 64 -140 12 -193 -76 -75 -204 -30 -217 77 -14 110 115 183 205
116z"/>
<path d="M249 391 c-39 -40 -39 -82 0 -122 20 -20 39 -29 61 -29 43 0 90 47
90 90 0 43 -47 90 -90 90 -22 0 -41 -9 -61 -29z m91 -37 c0 -7 6 -15 13 -18
10 -5 10 -7 0 -12 -7 -3 -13 -11 -13 -18 0 -7 -13 -13 -30 -13 -17 0 -30 6
-30 13 0 7 -6 15 -12 18 -10 5 -10 7 0 12 6 3 12 11 12 18 0 7 13 13 30 13 17
0 30 -6 30 -13z"/>
<path d="M649 391 c-20 -20 -29 -39 -29 -61 0 -43 47 -90 90 -90 43 0 90 47
90 90 0 43 -47 90 -90 90 -22 0 -41 -9 -61 -29z m91 -37 c0 -7 6 -15 13 -18
10 -5 10 -7 0 -12 -7 -3 -13 -11 -13 -18 0 -7 -13 -13 -30 -13 -17 0 -30 6
-30 13 0 7 -6 15 -12 18 -10 5 -10 7 0 12 6 3 12 11 12 18 0 7 13 13 30 13 17
0 30 -6 30 -13z"/>
</g>
</svg>
